<!DOCTYPE svg PUBLIC "-//W3C//DTD SVG 1.1//EN" "http://www.w3.org/Graphics/SVG/1.1/DTD/svg11.dtd">
<!-- Uploaded to: SVG Repo, www.svgrepo.com, Transformed by: SVG Repo Mixer Tools -->
<svg fill="#000000" width="800px" height="800px" viewBox="0 0 24 24" id="reddit" data-name="Flat Color" xmlns="http://www.w3.org/2000/svg" class="icon flat-color">

<g id="SVGRepo_bgCarrier" stroke-width="0"/>

<g id="SVGRepo_tracerCarrier" stroke-linecap="round" stroke-linejoin="round"/>

<g id="SVGRepo_iconCarrier">

<path id="secondary" d="M18,2.5a1.52,1.52,0,0,0-.84.26L14.24,2a1,1,0,0,0-1.19.65l-2,6A1,1,0,0,0,11.68,10,1.25,1.25,0,0,0,12,10,1,1,0,0,0,13,9.32l1.71-5.13,2,.51A1.5,1.5,0,1,0,18,2.5Z" style="fill: #000000;"/>

<path id="primary" d="M22,11a4,4,0,0,0-4-4,4,4,0,0,0-3,1.33A14.17,14.17,0,0,0,9,8.33,4,4,0,0,0,6,7a4,4,0,0,0-4,4,3.93,3.93,0,0,0,.47,1.87A5.15,5.15,0,0,0,2,15c0,3.92,4.39,7,10,7s10-3.08,10-7a5.15,5.15,0,0,0-.47-2.13A3.93,3.93,0,0,0,22,11Z" style="fill: #670312;"/>

<path id="secondary-2" data-name="secondary" d="M10,14a1.5,1.5,0,1,1-1.5-1.5A1.5,1.5,0,0,1,10,14Zm5.5-1.5A1.5,1.5,0,1,0,17,14,1.5,1.5,0,0,0,15.5,12.5Z" style="fill: #000000;"/>

</g>

</svg>